<?xml version="1.0" standalone="no"?>
<!DOCTYPE svg PUBLIC "-//W3C//DTD SVG 20010904//EN"
 "http://www.w3.org/TR/2001/REC-SVG-20010904/DTD/svg10.dtd">
<svg version="1.0" xmlns="http://www.w3.org/2000/svg"
 width="512.000000pt" height="512.000000pt" viewBox="0 0 512.000000 512.000000"
 preserveAspectRatio="xMidYMid meet">
<metadata>
Created by potrace 1.11, written by Peter Selinger 2001-2013
</metadata>
<g transform="translate(0.000000,512.000000) scale(0.100000,-0.100000)"
fill="#000000" stroke="none">
<path d="M2489 4951 c-137 -45 -206 -204 -144 -335 19 -39 99 -116 121 -116
11 0 14 -27 14 -130 0 -71 -3 -130 -7 -131 -5 0 -28 -3 -53 -5 -40 -4 -176
-26 -237 -38 -89 -18 -251 -75 -353 -125 l-39 -19 -44 76 -44 76 24 34 c32 49
46 107 40 175 -16 175 -207 284 -367 209 -54 -25 -67 -36 -104 -84 -122 -162
-9 -403 194 -414 30 -1 60 -3 67 -3 8 -1 66 -91 91 -142 1 -3 -37 -35 -85 -72
-150 -113 -323 -293 -388 -404 -11 -18 -22 -33 -25 -33 -3 0 -72 39 -155 86
-82 48 -178 102 -211 122 l-61 34 -5 62 c-8 100 -54 170 -138 209 -61 28 -151
28 -205 0 -141 -73 -181 -229 -93 -360 69 -102 228 -133 328 -62 l26 17 216
-124 216 -125 -35 -77 c-80 -173 -133 -381 -146 -577 l-2 -30 -130 -3 -130 -3
-13 29 c-30 70 -130 132 -211 132 -54 0 -126 -29 -164 -66 -59 -58 -72 -88
-72 -174 0 -84 13 -116 67 -169 54 -54 85 -66 168 -65 64 0 81 4 115 26 49 32
91 76 100 106 6 22 9 23 137 20 122 -3 131 -4 134 -23 1 -11 5 -47 8 -80 17
-173 77 -388 147 -527 l28 -56 -216 -125 c-217 -125 -217 -125 -243 -108 -67
47 -179 51 -247 8 -84 -53 -123 -125 -119 -219 4 -89 54 -165 135 -205 48 -23
142 -26 192 -5 87 38 149 131 149 226 l0 41 207 120 c114 66 210 121 213 123
4 1 37 -39 76 -90 38 -51 111 -134 162 -185 86 -85 232 -205 263 -215 10 -3 1
-27 -32 -83 l-45 -78 -55 -2 c-207 -8 -305 -264 -156 -406 47 -45 83 -61 152
-66 186 -15 314 187 222 351 -21 38 -23 48 -12 63 7 10 21 34 32 53 10 19 25
45 32 56 l14 21 81 -37 c115 -52 256 -97 366 -116 14 -2 35 -6 46 -9 21 -5
126 -16 169 -19 19 -1 20 -9 23 -131 l3 -130 -29 -12 c-78 -35 -127 -117 -127
-213 0 -96 45 -172 130 -218 41 -23 169 -23 211 0 76 42 134 134 134 216 0 83
-62 184 -130 212 l-30 12 0 133 c0 116 2 133 16 131 14 -2 63 3 179 20 32 4
154 32 210 47 48 13 134 46 202 78 l82 37 44 -75 44 -76 -25 -45 c-48 -86 -34
-204 33 -275 46 -49 87 -68 157 -74 71 -7 133 14 182 62 49 48 69 91 72 160 6
135 -89 242 -223 249 -30 2 -58 8 -62 12 -5 5 -25 39 -45 76 l-37 67 43 30
c142 99 290 241 388 374 32 42 60 83 62 89 3 8 86 -34 221 -112 l217 -124 1
-40 c1 -88 28 -144 93 -195 100 -79 252 -62 331 36 96 121 59 296 -80 371 -48
26 -159 22 -218 -8 -48 -24 -49 -24 -80 -6 -18 10 -55 31 -83 47 -57 31 -257
148 -290 169 -21 13 -21 13 17 97 44 93 105 286 115 360 3 26 8 50 9 54 2 3 7
39 11 80 4 40 8 81 9 89 1 12 25 15 131 18 l129 2 23 -42 c36 -69 123 -118
208 -118 86 0 178 64 216 150 23 53 20 145 -6 197 -53 102 -177 154 -288 121
-48 -14 -133 -88 -142 -123 l-7 -26 -132 3 c-124 3 -132 4 -133 23 -10 184
-66 413 -144 581 l-38 83 216 125 c178 103 219 123 232 113 53 -42 143 -57
214 -35 45 14 101 60 131 109 68 107 29 261 -84 327 -39 23 -57 27 -122 27
-67 0 -81 -4 -124 -30 -69 -43 -106 -105 -113 -190 -3 -49 -9 -68 -21 -73 -9
-3 -40 -20 -69 -39 -29 -18 -54 -33 -56 -33 -2 0 -65 -36 -141 -80 -76 -44
-138 -80 -140 -80 -1 0 -31 39 -67 88 -101 135 -242 274 -377 371 -34 24 -61
45 -61 46 0 2 19 36 43 75 l42 72 55 2 c80 3 134 32 182 96 83 112 50 277 -71
348 -59 34 -156 40 -216 13 -124 -56 -177 -205 -116 -326 l27 -53 -43 -74
c-24 -40 -46 -72 -50 -71 -5 1 -39 16 -77 33 -147 68 -348 124 -489 137 -40 3
-79 7 -87 9 -8 1 -18 3 -22 3 -5 1 -8 59 -8 130 0 123 1 130 21 136 30 10 96
72 114 107 56 114 5 266 -110 325 -34 18 -138 26 -176 14z m127 -172 c39 -32
17 -123 -32 -135 -43 -11 -92 19 -99 60 -7 37 14 81 43 90 23 6 72 -2 88 -15z
m-1047 -356 c12 -10 24 -34 27 -53 5 -29 1 -40 -21 -63 -15 -15 -36 -27 -46
-27 -75 0 -115 85 -64 135 29 30 73 33 104 8z m2078 2 c28 -19 39 -70 23 -101
-19 -34 -63 -49 -100 -34 -39 16 -53 43 -46 86 11 57 75 83 123 49z m-3104
-616 c25 -31 22 -75 -8 -104 -39 -40 -103 -28 -124 23 -15 36 -8 65 22 93 28
26 84 20 110 -12z m4150 9 c21 -21 29 -66 16 -91 -40 -73 -132 -58 -145 25 -5
31 -2 41 21 63 22 23 33 26 61 22 19 -3 40 -12 47 -19z m-2315 -561 c7 -8 15
-29 18 -49 5 -28 2 -40 -15 -57 -62 -62 -158 -10 -137 74 12 48 97 68 134 32z
m798 -158 c38 -31 17 -123 -30 -135 -26 -6 -63 2 -83 18 -16 13 -26 63 -18 88
14 43 93 61 131 29z m-1361 -399 c18 -15 28 -64 20 -90 -9 -28 -60 -53 -95
-45 -36 8 -49 24 -56 67 -5 26 -1 39 21 62 22 24 32 28 62 23 19 -3 41 -11 48
-17z m-1370 -76 c33 -21 42 -74 20 -107 -36 -56 -128 -38 -140 27 -14 72 58
120 120 80z m2171 -5 c19 -15 28 -73 15 -97 -5 -10 -24 -25 -41 -32 -71 -30
-137 49 -95 113 9 14 24 28 33 31 24 6 72 -2 88 -15z m2161 -2 c8 -7 16 -29
19 -49 7 -40 -16 -73 -59 -83 -79 -20 -126 76 -66 136 17 17 29 20 57 15 20
-3 42 -11 49 -19z m-1549 -383 c30 -9 55 -58 47 -94 -21 -95 -170 -62 -151 34
10 51 51 74 104 60z m-787 -245 c26 -13 41 -55 34 -90 -14 -64 -110 -77 -140
-19 -22 42 -19 68 11 95 29 27 63 32 95 14z m-1906 -574 c16 -15 25 -36 25
-55 0 -80 -109 -109 -146 -38 -42 81 57 158 121 93z m4158 3 c56 -55 4 -150
-72 -133 -62 13 -81 86 -35 132 21 21 32 24 60 20 19 -3 40 -12 47 -19z
m-3139 -589 c30 -14 51 -59 42 -93 -9 -35 -51 -59 -91 -52 -40 8 -56 25 -62
69 -3 26 2 39 23 60 29 29 50 33 88 16z m2102 -14 c8 -8 18 -30 21 -49 4 -28
1 -39 -20 -60 -68 -68 -172 13 -122 95 25 40 88 47 121 14z m-1049 -350 c26
-18 39 -75 24 -103 -5 -10 -24 -25 -41 -32 -71 -30 -137 49 -95 113 24 38 75
48 112 22z"/>
</g>
</svg>
